<svg id="Layer_1" data-name="Layer 1" xmlns="http://www.w3.org/2000/svg" viewBox="0 0 506 254"><title>Baseline Logo</title><path d="M9,31.91Q51.12,4.25,103.55,4.25q38.07,0,62.16,17t24.08,44q0,35.94-41.79,48.1v1.58q4.29,1.06,10.37,2.83,19.84-4.6,31.19-18.74t11.36-34.1q0-25.09-20.92-44.54V19.28l2,1.59q23.42,17.85,23.42,45.77,0,38.53-40.41,53.73,17.52,7.95,27.27,22.62A58.42,58.42,0,0,1,202,176q0,26.33-19.31,42.14T131.2,234H4.56L29,213.21V136.92A166.18,166.18,0,0,0,4.56,139l-1.41-5.11Q18.9,132.35,29,132.34V123H24.57q-9.91,0-25,1.41L7.4,107.5l2.83.17q6.9.52,10.45.53a51,51,0,0,1,8.32.53V42.48ZM196.65,135.72q18.9,14.67,18.89,44.54,0,30-21,49.65Q174.06,249,134.32,249H14.26l-3-5H122.67c24.25.23,41.73-2.25,52.44-7.19q35.67-16.62,35.67-57.79,0-23-16.25-41.71ZM64,29.3V109q2-.18,2.73-.18L70,109h3V36.58c10.35-4.71,20.24-7.07,29.89-7.07q16.6,0,26.22,6T145.45,56l-4.95-2.83q-13.25-20-37.78-20C93.53,33.22,78,41,78,41v68h7.64q34.73,0,51.72-11.22t17-34.37q0-20.32-14.09-32.79t-37-12.45Q83.1,18.17,64,29.3Zm0,94.84V221h9V134.69q12.78-.88,18.36-.88,29.88,0,43.29,5.45T156,160h-1.25a46,46,0,0,0-22.37-16.79q-13.46-4.65-39.45-4.66L78,138.9V221h5.82l26.36-.88q51.27-3.51,51.28-48.17,0-27.94-16.91-38.23T81.27,123.43Q76.72,123.43,64,124.14Z" style="fill:#fff"/><path d="M401.88,8,383.49,28.88l29,77.14,7.07-3.89L393.39,32.42l18.74-21.59,4.6,1.95-17.86,20.7,24.75,66c1.42-1.06,2.24-1.71,2.48-1.94l5.83-5a51.19,51.19,0,0,0,6.72-6,122.79,122.79,0,0,0,14.14,36.09q-5.13-.34-7.42-.35-16.8,0-24.58,5.3l32,86.88L479.31,235H390l24.37-21-19.6-51.6Q375.34,182,364.92,199.7l-4.06-1.07q10.41-17.31,31.08-38.7l1.41-1.76L390,150.39A156.84,156.84,0,0,0,355.21,191L352,185.91q-9.18-14.67-23.48-33.4l-1.77-2.12q-13.59,30.23-13.59,49.13,0,11.13,3.79,18.82t18.28,25.71c.82,1.06,2.12,2.71,3.88,4.95H243.88l-3.7-5h90l-3-3.48q-11.64-14.15-15.27-22a43.88,43.88,0,0,1-3.62-18.47q0-18,14.66-53.72l-7.77-8.13q-2.29,5.66-5.83,16.61l-5.83,18q-4.75,14.49-4.76,24,0,9.9,3.35,16.43t14.13,17.85c.71.71,3.18,2.85,3.18,2.85l-88.43,1q25.27-13.09,40-35.21t29.25-68.29l.71-2.48q-9.37-8-27.05-9.73a127.29,127.29,0,0,0,15-30.26c1.65,1.54,2.65,2.48,3,2.83l8,7.44a90.76,90.76,0,0,0,9.72,8l3.18-7.79-2.12-1.77q-8.84-7.78-14.85-12.56l-1.59-1.24L297.05,80a136,136,0,0,1,18,14.33l24-66.17L320.38,8ZM350.27,44l-28.08,74.23a245.13,245.13,0,0,1,23.13,27.21l8.12,11.31c.12.12.71.89,1.77,2.3a13.69,13.69,0,0,0,1.76-1.94l2.48-3c.35-.47,1-1.24,1.94-2.3a184.11,184.11,0,0,0-28.78-34.46l22.6-59.73Zm7.94,20.5-19.42,51.25a17.72,17.72,0,0,1,1.76,2.12l7.24,8.13q5.83,6.36,14.83,19.79l1.77,2.66a156.75,156.75,0,0,1,18-18.91Zm95.88,30.22q3.89,15.91,19.42,43.65c-2.59-.35-4.06-.53-4.41-.53l-14.31-1.23q-9.71-.88-14.12-.89c-.47,0-1.65.06-3.53.18l29.49,78.29L506,249H403.77l-3.36-5h93.76l-31.78-27.87L431,132.89a54,54,0,0,1,13.77-1.59,157.93,157.93,0,0,1,21.19,1.59L463.8,129q-11.3-20.85-15.19-37.65Z" style="fill:#fff"/></svg>